<svg id="レイヤー_1" data-name="レイヤー 1" xmlns="http://www.w3.org/2000/svg" viewBox="0 0 256 256"><defs><style>.cls-1{fill:#fdffdb;}.cls-2{fill:#4300f1;}</style></defs><title>アートボード 1</title><path class="cls-1" d="M131.07,117.05c-8.67.42-17.2-2-25.55-4.36C99.8,111.07,94,109.38,89.07,106c-5.73-4-9.77-10.07-12.14-16.62s-3.17-13.59-3.36-20.56a30.69,30.69,0,0,1,.66-8.56A28.07,28.07,0,0,1,79,51.11,69,69,0,0,1,126.2,23.34a35.53,35.53,0,0,1,10.4.06c6.84,1.21,12.81,5.27,18.3,9.54,4.88,3.8,9.64,7.91,13.11,13s5.48,10.94,7,16.87c2.34,9.4,3.11,20.09-2.36,28.09-2.81,4.1-7,7-11.06,9.9a101.57,101.57,0,0,1-12,7.58c-9.12,4.66-19.39,6.47-29.5,8.1"/><path d="M131.07,115.55c-10.64.28-21.37-2.82-31.39-6.18-9.31-3.12-16.33-8.9-20.34-18S72.87,68.52,76.19,59c3-8.62,11.31-16.36,18.53-21.63C109.63,26.52,131.57,19.2,148.25,30c8.23,5.32,16.49,12.17,21,21.05,4.14,8.19,6.72,18.7,5.88,27.89-1.16,12.66-11.76,19.41-21.68,25.56-10.31,6.39-22,8.66-33.77,10.57-1.9.31-1.09,3.2.8,2.89,12.07-2,24-4.36,34.48-10.87,8.42-5.2,18.42-11.26,21.78-21.13,3.24-9.54,1-20.67-2.19-29.92-3.6-10.37-10.31-17.76-18.88-24.39-9-7-17.86-11.12-29.45-9.8a69.61,69.61,0,0,0-27.91,9.59A67.52,67.52,0,0,0,76.2,52.5c-5.89,9.22-4.74,21.17-2.41,31.43,2.45,10.8,8.5,20.82,18.71,25.79,5.67,2.75,12,4.31,18,5.92a72.35,72.35,0,0,0,20.56,2.91c1.92,0,1.93-3,0-3Z"/><path d="M128.1,116.89a220.57,220.57,0,0,1-.48,40.79c-.71,6.68-.84,15.55-4.31,21.52-3.09,5.3-9.15,8.12-14.24,11.1-11.3,6.62-22.1,14-32.71,21.72-5.57,4-11.08,8.11-16.61,12.18S48,234.53,40.89,234.55a1.5,1.5,0,0,0,0,3c6.6,0,11.53-4.25,16.61-8,6-4.44,12-8.91,18.1-13.31a452.42,452.42,0,0,1,37.84-25c4.29-2.5,8.8-5.19,11.69-9.35,3.5-5,3.89-11.71,4.69-17.61a222.2,222.2,0,0,0,1.28-47.39c-.15-1.92-3.15-1.93-3,0Z"/><path d="M126.58,179.14l43.68,31c6.88,4.87,13.88,9.61,20.62,14.67,6.22,4.67,11.21,11,18.28,14.45,1.72.84,3.25-1.74,1.51-2.59-7-3.45-12.07-9.81-18.28-14.45-6.75-5.05-13.74-9.8-20.62-14.67l-43.68-31c-1.58-1.12-3.08,1.48-1.51,2.59Z"/><path d="M128.91,140.08a182.3,182.3,0,0,1-32.52,8.38c-9.74,1.55-25.84,5.21-33.81-2.65-3.79-3.73-6.1-9.22-8.45-13.9-2.65-5.25-5.08-10.6-7.37-16-4.6-10.9-8.62-22-12.64-33.18-.65-1.8-3.55-1-2.89.8,4.29,11.9,8.6,23.81,13.6,35.45,2.71,6.32,5.63,12.55,8.86,18.63,2.28,4.31,4.57,9,8.61,11.9,8.25,6,20.52,3.82,29.87,2.59A183.62,183.62,0,0,0,129.71,143c1.81-.64,1-3.54-.8-2.89Z"/><path d="M131.53,142.78l22.13,8.94c6.23,2.51,12.49,5.35,19.11,6.68,11.58,2.33,20.79-1.69,27.6-11.14,7.57-10.53,13.62-22.87,18.83-34.7a132,132,0,0,0,10.64-36.93c.24-1.91-2.76-1.9-3,0-3,23.72-14.05,46.09-26.49,66.22-2.91,4.7-6.35,9.5-11.36,12.14-6.46,3.42-13.93,2.23-20.6.15-12.27-3.8-24.15-9.44-36.06-14.25-1.79-.72-2.57,2.18-.8,2.89Z"/><path class="cls-2" d="M131.91,59.65c1.5-2.21,3.05-4.37,4.75-6.44,2.16-2.63,2.34-3.64,5.93-3.21A3.57,3.57,0,0,1,147,52.46l2,2.9,4.06,5.78c1.1,1.57,3.7.07,2.59-1.51-3-4.25-7.06-13.61-13.19-14.06-5.83-.43-10.49,8.56-13.2,12.57-1.08,1.6,1.52,3.1,2.59,1.51Z"/><path class="cls-2" d="M92.83,58.49a39.25,39.25,0,0,1,2.8-5.13c.78-1.19,2.66-4.53,4.16-5.15,3.3-1.36,7.06,6.35,8.1,8.57.82,1.74,3.4.22,2.59-1.52-1.56-3.33-5.78-11.2-10.4-10.55-2,.28-3.55,2.53-4.74,4A38.61,38.61,0,0,0,90.24,57c-.8,1.74,1.78,3.26,2.59,1.51Z"/><path class="cls-2" d="M142.08,64.34V77.78a1.5,1.5,0,0,0,3,0V64.34a1.5,1.5,0,0,0-3,0Z"/><path class="cls-2" d="M102.83,67.1c.86.62.57,3.54.66,4.55l.46,5.22c.17,1.91,3.17,1.93,3,0-.24-2.76-.46-5.52-.73-8.27-.17-1.71-.42-3-1.88-4.09s-3.07,1.48-1.51,2.59Z"/><path class="cls-2" d="M122.61,83.51c.36-.65,1.82-3.59,2.55-3.51.42,0,.79,1.15,1,1.45A5.58,5.58,0,0,0,127.31,83c1.44,1.28,3.57-.83,2.12-2.12-.8-.72-1.06-1.83-1.76-2.64a3.51,3.51,0,0,0-2.94-1.33c-2.21.24-3.76,3.39-4.71,5.09s1.65,3.21,2.59,1.52Z"/><path class="cls-2" d="M100.57,93.39c6.75,2.47,13.48,1.21,20.28-.41a112.87,112.87,0,0,1,25.93-3.41l-1.45-1.9c-1.56,8.51-10.07,13.13-18,14.32-8.83,1.33-17.55-2-22.26-9.82a1.5,1.5,0,0,0-2.59,1.51c5.3,8.76,15.23,12.81,25.25,11.31,9-1.36,18.74-6.89,20.51-16.52a1.52,1.52,0,0,0-1.45-1.9,102.16,102.16,0,0,0-21.56,2.3c-7.93,1.73-15.84,4.56-23.85,1.63-1.82-.66-2.6,2.24-.8,2.89Z"/></svg>